# xmcd
#
# Track frame offsets:
#	150
#	21408
#	39024
#	63945
#	82168
#	95456
#	126694
#	139639
#	175636
#	188840
#	220434
#	238549
#	268378
#	282099
#	305825
#
# Disc length: 4358 seconds
#
# Revision: 1
# Processed by: cddbd v1.5.2PL0 Copyright (c) Steve Scherf et al.
# Submitted via: EasyCDDAExtractor 16.0.6.1
#
DISCID=e011040f
DTITLE=Eric Clapton - R-603 Blues
DYEAR=1999
DGENRE=Blues
TTITLE0=Before You Accuse Me (Take a L
TTITLE1=Mean Old World
TTITLE2=Ain't That Loving You
TTITLE3=The Sky Is Crying
TTITLE4=Cryin'
TTITLE5=Have You Ever Loved A Woman
TTITLE6=Alberta
TTITLE7=Early in the Morning
TTITLE8=Give Me Strength
TTITLE9=Meet Me (Down At The Bottom)
TTITLE10=County Jail Blues
TTITLE11=Floating Bridge
TTITLE12=Blow Wind Blow
TTITLE13=To Make Somebody Happy
TTITLE14=Before You Accuse Me (Take A L
EXTD=
EXTT0=
EXTT1=
EXTT2=
EXTT3=
EXTT4=
EXTT5=
EXTT6=
EXTT7=
EXTT8=
EXTT9=
EXTT10=
EXTT11=
EXTT12=
EXTT13=
EXTT14=
PLAYORDER=
